<svg width="131" height="41" fill="none" xmlns="http://www.w3.org/2000/svg"><path d="M68.73 10.447a2.65 2.65 0 1 1-5.298.002 2.65 2.65 0 0 1 5.299-.002Zm-10.92 5.338v.652a5.09 5.09 0 0 0-3.951-1.63 8.07 8.07 0 0 0 0 16.134 4.946 4.946 0 0 0 3.952-1.67v.691a.556.556 0 0 0 .57.57h3.3v-15.32h-3.3a.586.586 0 0 0-.57.572v.001Zm0 9.82a4.047 4.047 0 0 1-3.3 1.67 4.403 4.403 0 0 1-4.258-6.134 4.404 4.404 0 0 1 4.259-2.666 4.16 4.16 0 0 1 3.3 1.671v5.458Zm6.317-10.39h3.91v15.32h-3.91V15.212v.001Zm58.428-.409a5.087 5.087 0 0 0-3.953 1.631v-8.6h-3.911v22.695h3.3a.582.582 0 0 0 .57-.57v-.693a5.04 5.04 0 0 0 3.952 1.671 8.07 8.07 0 0 0 .042-16.136v.002Zm-.652 12.428a3.992 3.992 0 0 1-3.3-1.67v-5.46a4.422 4.422 0 0 1 3.3-1.672 4.399 4.399 0 1 1 0 8.8v.002Zm-9.249-5.785v9.127h-3.912v-8.679c0-2.526-.815-3.545-3.014-3.545a4.378 4.378 0 0 0-3.179 1.508v10.675h-3.91v-15.32h3.1a.582.582 0 0 1 .571.57v.652a5.615 5.615 0 0 1 4.155-1.63 6.346 6.346 0 0 1 4.279 1.466c1.385 1.141 1.915 2.607 1.915 5.175l-.005.001Zm-23.511-6.642a5.09 5.09 0 0 0-3.952 1.631v-8.6H81.28v22.695h3.3a.583.583 0 0 0 .57-.57v-.693a5.045 5.045 0 0 0 3.953 1.671 8.07 8.07 0 0 0 .04-16.135v.001Zm-.652 12.428a3.988 3.988 0 0 1-3.3-1.67v-5.46a4.423 4.423 0 0 1 3.3-1.672 4.405 4.405 0 1 1 0 8.8v.002ZM77.898 14.807a6.223 6.223 0 0 1 1.793.2v3.626s-3.26-1.1-5.3 1.223v10.716h-3.912V15.213h3.3a.582.582 0 0 1 .57.571v.652a5.355 5.355 0 0 1 3.549-1.63v.001ZM37.276 29.15c-.2-.489-.407-1.018-.611-1.467-.326-.733-.652-1.426-.937-2.078l-.041-.04a432.964 432.964 0 0 0-9-18.417l-.122-.245a87.692 87.692 0 0 1-.977-1.915c-.402-.8-.894-1.552-1.467-2.24A6.581 6.581 0 0 0 18.94.22a6.838 6.838 0 0 0-5.214 2.445c-.56.699-1.051 1.45-1.467 2.241-.318.642-.644 1.28-.977 1.915l-.123.245c-3.137 6.111-6.193 12.3-9 18.416l-.041.081c-.285.653-.611 1.345-.937 2.078-.204.45-.407.938-.611 1.467a9.142 9.142 0 0 0-.49 4.4 8.66 8.66 0 0 0 5.3 6.764 8.361 8.361 0 0 0 3.3.652 10.76 10.76 0 0 0 5.135-1.467 20.632 20.632 0 0 0 5.045-4.237 21.41 21.41 0 0 0 5.052 4.237 10.763 10.763 0 0 0 4.074 1.385 8.216 8.216 0 0 0 4.36-.57 8.644 8.644 0 0 0 5.3-6.764 7.72 7.72 0 0 0-.37-4.359h-.001ZM18.9 31.27a20.093 20.093 0 0 1-4.115-7.579 6.57 6.57 0 0 1-.122-2.486c.08-.613.303-1.2.652-1.712a4.328 4.328 0 0 1 3.586-1.793 4.173 4.173 0 0 1 3.586 1.793c.348.512.571 1.099.652 1.712a6.558 6.558 0 0 1-.122 2.486 20.746 20.746 0 0 1-4.117 7.576v.002Zm16.256 1.914a6.053 6.053 0 0 1-3.707 4.768 6.17 6.17 0 0 1-3.1.407 8.021 8.021 0 0 1-3.1-1.059 19.035 19.035 0 0 1-4.645-3.953 22.984 22.984 0 0 0 4.93-9c.264-1.134.332-2.306.2-3.464a6.606 6.606 0 0 0-1.1-2.77 6.867 6.867 0 0 0-5.745-2.894 6.97 6.97 0 0 0-5.745 2.893 6.613 6.613 0 0 0-1.1 2.771 8.466 8.466 0 0 0 .2 3.464c.61 2.69 2.28 5.745 4.93 9.045a18.297 18.297 0 0 1-4.645 3.953 7.998 7.998 0 0 1-3.1 1.06 6.517 6.517 0 0 1-3.1-.408 6.055 6.055 0 0 1-3.686-4.776 6.74 6.74 0 0 1 .367-3.178c.122-.408.326-.815.53-1.3.285-.652.61-1.345.937-2.038l.04-.08A445.136 445.136 0 0 1 13.483 8.33l.122-.245c.326-.61.652-1.263.978-1.874.307-.64.69-1.242 1.14-1.793a4.277 4.277 0 0 1 6.52 0c.45.551.832 1.153 1.14 1.793.327.611.653 1.263.979 1.874l.123.245a540.03 540.03 0 0 1 8.923 18.335v.041c.326.653.61 1.386.937 2.038.2.488.407.9.53 1.3a6.885 6.885 0 0 1 .284 3.137l-.001.003Z" fill="#8989A2"/></svg>