<svg width="61" height="60" fill="none" xmlns="http://www.w3.org/2000/svg"><g clip-path="url(#a)" fill="#EF2A82"><path d="M33.87 41h-6a1 1 0 0 0 0 2h6a1 1 0 0 0 0-2ZM56.87 1H4.872A4.006 4.006 0 0 0 .87 5.001V38a1 1 0 0 0 1 1h58a1 1 0 0 0 1-1V5.001A4.006 4.006 0 0 0 56.87 1Zm2 36h-56V5.001C2.87 3.897 3.77 3 4.873 3H56.87c1.103 0 2 .897 2 2.001V37Z"/><path d="M59.87 37h-58a1 1 0 0 0-1 1v4.999a4.006 4.006 0 0 0 4.002 4H56.87a4.006 4.006 0 0 0 4-4V38a1 1 0 0 0-1-1Zm-1 5.999a2.003 2.003 0 0 1-2 2.001H4.872a2.003 2.003 0 0 1-2.001-2.001V39h56v3.999Z"/><path d="M55.87 5h-50a1 1 0 0 0-1 1v32a1 1 0 0 0 1 1h50a1 1 0 0 0 1-1V6a1 1 0 0 0-1-1Zm-1 32h-48V7h48v30ZM43.87 53h-26c-1.653 0-3 1.346-3 3s1.347 3 3 3h26c1.655 0 3-1.346 3-3s-1.345-3-3-3Zm0 4h-26a1.001 1.001 0 0 1 0-2h26a1.001 1.001 0 0 1 0 2Z"/><path d="M41.87 53c-3.317 0-5-2.355-5-7a1 1 0 0 0-1-1h-10a1 1 0 0 0-1 1c0 4.645-1.681 7-5 7a1 1 0 0 0 0 2h22a1 1 0 0 0 0-2Zm-17.128 0c1.23-1.364 1.956-3.395 2.101-6h8.055c.145 2.605.87 4.636 2.102 6H24.742ZM48.655 30.464 46.24 28.05l1.343-1.343a1.001 1.001 0 0 0-.42-1.665l-10-3a.998.998 0 0 0-1.244 1.245l3 10a.999.999 0 0 0 1.665.42l1.414-1.415 2.413 2.415a.998.998 0 0 0 1.415 0l2.827-2.83a.999.999 0 0 0 0-1.413Zm-3.535 2.122-2.198-2.199a1.304 1.304 0 0 0-1.846-.001l-.722.722-1.985-6.617 6.617 1.985-.774.774c-.214.214-.33.498-.33.8 0 .303.117.589.332.801l2.32 2.32-1.414 1.415ZM42.87 9h-28a1 1 0 0 0-1 1v5a1 1 0 0 0 1 1h28a1 1 0 0 0 1-1v-5a1 1 0 0 0-1-1Zm-1 5h-26v-3h26v3ZM26.87 20h-8a1 1 0 0 0-1 1v4a1 1 0 0 0 1 1h8a1 1 0 0 0 1-1v-4a1 1 0 0 0-1-1Zm-1 4h-6v-2h6v2Z"/><path d="M42.87 9h-28a1 1 0 0 0-1 1v19a1 1 0 0 0 1 1h23.807a1 1 0 0 0 .958-1.288l-1.266-4.221 4.215 1.265a.997.997 0 0 0 1.287-.958V10a1 1 0 0 0-1-1Zm-1 14.454-4.706-1.412a.998.998 0 0 0-1.245 1.246L37.333 28H15.87V11h26v12.454Z"/></g><defs><clipPath id="a"><path fill="#fff" transform="translate(.87)" d="M0 0h60v60H0z"/></clipPath></defs></svg>